FFmpeg version SVN-r25716, Copyright (c) 2000-2010 the FFmpeg developers  built on Nov 10 2010 12:23:18 with gcc 4.1.2 20080704 (Red Hat 4.1.2-48)  configuration: --enable-libmp3lame --enable-shared --disable-mmx --arch=x86_64  libavutil     50.33. 0 / 50.33. 0  libavcore      0.12. 1 /  0.12. 1  libavcodec    52.94. 4 / 52.94. 4  libavformat   52.84. 0 / 52.84. 0  libavdevice   52. 2. 2 / 52. 2. 2  libavfilter    1.59. 0 /  1.59. 0  libswscale     0.12. 0 /  0.12. 0Seems stream 0 codec frame rate differs from container frame rate: 90000.00 (90000/1) -> 29.97 (30000/1001)Input #0, mov,mp4,m4a,3gp,3g2,mj2, from '/RAID10/data/converted_video_files/12317.mov':  Metadata:    major_brand     : qt      minor_version   : 537199360    compatible_brands: qt    Duration: 00:00:26.46, start: 0.000000, bitrate: 73741 kb/s    Stream #0.0(eng): Video: rawvideo, argb, 320x240, 73740 kb/s, 30.01 fps, 29.97 tbr, 90k tbn, 90k tbc[buffer @ 0x898e520] w:320 h:240 pixfmt:argb[ffsink @ 0x89c88f0] auto-inserting filter 'auto-inserted scaler 0' between the filter 'src' and the filter 'out'[scale @ 0x89c8c10] w:320 h:240 fmt:argb -> w:320 h:240 fmt:yuv420p flags:0x4Output #0, flv, to '/RAID10/data/converted_video_files/12317.flv':  Metadata:    encoder         : Lavf52.84.0    Stream #0.0(eng): Video: flv, yuv420p, 320x240, q=2-31, 600 kb/s, 1k tbn, 24 tbcStream mapping:  Stream #0.0 -> #0.0Press [q] to stop encodingframe=   90 fps=  0 q=2.3 size=     379kB time=3.75 bitrate= 826.9kbits/s dup=0 drop=22    frame=  173 fps=167 q=2.7 size=     691kB time=7.21 bitrate= 785.4kbits/s dup=0 drop=43    frame=  265 fps=173 q=1.7 size=     998kB time=11.04 bitrate= 740.3kbits/s dup=0 drop=66    frame=  356 fps=171 q=3.1 size=    1289kB time=14.83 bitrate= 711.6kbits/s dup=0 drop=88    frame=  428 fps=169 q=4.1 size=    1516kB time=17.83 bitrate= 696.2kbits/s dup=0 drop=106    frame=  517 fps=170 q=5.7 size=    1820kB time=21.54 bitrate= 692.1kbits/s dup=0 drop=128    frame=  608 fps=171 q=6.1 size=    2114kB time=25.33 bitrate= 683.6kbits/s dup=0 drop=151    frame=  636 fps=171 q=4.6 Lsize=    2184kB time=26.50 bitrate= 675.1kbits/s dup=0 drop=158    video:2174kB audio:0kB global headers:0kB muxing overhead 0.466630%